<svg width="150" height="66" viewBox="0 0 150 66" fill="none" xmlns="http://www.w3.org/2000/svg">
<path d="M20.8806 15.7107C20.8806 16.8016 20.5504 17.6594 19.8901 18.2843C19.2299 18.8985 18.1553 19.3275 16.6664 19.571V19.6823C18.3624 19.8411 19.5859 20.2436 20.3368 20.8896C21.1007 21.5251 21.4826 22.4412 21.4826 23.6379C21.4826 25.3007 20.8094 26.5822 19.4629 27.4824C18.1294 28.3721 16.1744 28.8169 13.598 28.8169H4.68408V11.5485H13.6368C16.045 11.5485 17.851 11.9032 19.0551 12.6128C20.2721 13.3224 20.8806 14.355 20.8806 15.7107ZM19.4435 23.6062C19.4435 21.488 17.4562 20.4289 13.4814 20.4289H6.60667V27.3236H13.7534C17.5468 27.3236 19.4435 26.0845 19.4435 23.6062ZM18.8414 15.8378C18.8414 14.8316 18.4013 14.1168 17.5209 13.6931C16.6405 13.2589 15.3199 13.0418 13.5592 13.0418H6.60667V18.9515H13.3261C15.294 18.9515 16.7053 18.7026 17.5597 18.2048C18.4142 17.7071 18.8414 16.918 18.8414 15.8378ZM28.8041 11.5485V23.8445C28.8041 25.2636 29.1018 26.2698 29.6974 26.8629C30.3059 27.4454 31.2963 27.7366 32.6687 27.7366C33.5103 27.7366 34.3453 27.6519 35.1739 27.4824V28.8169C34.915 28.891 34.5201 28.9599 33.9893 29.0234C33.4584 29.0975 32.9535 29.1346 32.4745 29.1346C30.5066 29.1346 29.0824 28.711 28.202 27.8637C27.3346 27.0164 26.9009 25.7296 26.9009 24.0034V11.5485H28.8041ZM55.9148 11.5485V12.6446L51.5452 12.867C52.7104 14.0532 53.293 15.3559 53.293 16.7751C53.293 18.4378 52.6133 19.7881 51.2539 20.8261C49.9074 21.8534 48.0949 22.367 45.8162 22.367C44.8582 22.367 44.1849 22.3353 43.7965 22.2717C43.0326 22.6 42.45 22.9866 42.0487 23.4314C41.6474 23.8762 41.4467 24.3475 41.4467 24.8453C41.4467 25.3961 41.6991 25.7985 42.2041 26.0527C42.722 26.3069 43.5829 26.4339 44.787 26.4339H48.4768C50.7684 26.4339 52.5227 26.8152 53.7397 27.5778C54.9567 28.3297 55.5652 29.4471 55.5652 30.9298C55.5652 32.7514 54.6589 34.1547 52.8464 35.1397C51.0467 36.1352 48.4768 36.633 45.1365 36.633C42.4824 36.633 40.4239 36.2146 38.9609 35.378C37.5108 34.5413 36.7858 33.3763 36.7858 31.883C36.7858 30.6968 37.2325 29.7119 38.1258 28.9281C39.0321 28.1444 40.2555 27.6095 41.7962 27.3236C41.1618 27.1012 40.6504 26.7888 40.262 26.3863C39.8866 25.9732 39.6988 25.5019 39.6988 24.9724C39.6988 23.818 40.5987 22.8013 42.3983 21.9222C41.1683 21.5092 40.2103 20.8632 39.5241 19.9841C38.8379 19.0945 38.4948 18.0777 38.4948 16.9339C38.4948 15.2076 39.1616 13.8255 40.4951 12.7876C41.8416 11.7391 43.6541 11.2148 45.9327 11.2148C47.318 11.2148 48.3926 11.3261 49.1565 11.5485H55.9148ZM38.8249 31.74C38.8249 34.1123 40.9806 35.2985 45.2919 35.2985C50.8331 35.2985 53.6038 33.8529 53.6038 30.9616C53.6038 29.9237 53.17 29.1717 52.3026 28.7057C51.4351 28.2397 50.0304 28.0067 48.0884 28.0067H44.6316C40.7605 28.0067 38.8249 29.2511 38.8249 31.74ZM40.4368 16.9339C40.4368 18.2684 40.9288 19.3063 41.9128 20.0476C42.9097 20.7784 44.2367 21.1438 45.8939 21.1438C47.6547 21.1438 49.0012 20.7784 49.9333 20.0476C50.8784 19.3169 51.351 18.2578 51.351 16.8704C51.351 15.3983 50.8655 14.2968 49.8945 13.566C48.9364 12.8246 47.59 12.454 45.8551 12.454C44.172 12.454 42.8449 12.8511 41.8739 13.6455C40.9158 14.4292 40.4368 15.5253 40.4368 16.9339ZM78.2868 27.7366C80.6175 27.7366 82.3329 27.1647 83.4334 26.0209C84.534 24.8665 85.084 22.9919 85.084 20.3972V19.8411C85.084 17.3311 84.5272 15.5041 83.4141 14.3603C82.3136 13.2165 80.5851 12.6446 78.2289 12.6446C76.0408 12.6446 74.351 13.3012 73.1601 14.6145C71.9817 15.9172 71.3925 17.7865 71.3925 20.2224C71.3925 25.2319 73.6908 27.7366 78.2868 27.7366ZM78.2868 29.1346C75.3607 29.1346 73.1408 28.3774 71.626 26.8629C70.1238 25.3484 69.3732 23.1455 69.3732 20.2541C69.3732 17.3417 70.1499 15.107 71.7033 13.5501C73.2698 11.9933 75.5164 11.2148 78.4425 11.2148C80.0993 11.2148 81.4976 11.5167 82.6368 12.1203C83.7766 12.7135 84.6954 13.6508 85.3948 14.9323H85.5113C85.563 14.3815 85.6795 13.7514 85.8607 13.0418C86.055 12.3216 86.217 11.8238 86.3465 11.5485H87.7834C87.2527 12.9677 86.9874 15.0381 86.9874 17.76V25.6238C86.9874 27.1277 87.5698 27.8796 88.7351 27.8796C89.2141 27.8796 89.6283 27.8214 89.9777 27.7048V28.8487C89.6027 29.0393 89.0715 29.1346 88.3857 29.1346C86.4954 29.1346 85.4334 28.1391 85.2005 26.148H85.0454C84.2295 27.1859 83.2715 27.9431 82.1709 28.4197C81.0704 28.8963 79.776 29.1346 78.2868 29.1346ZM90.5215 11.5485H92.5027L96.9692 21.2391C98.3289 24.2152 99.1897 26.2221 99.5522 27.26H99.6687C100.212 25.8938 101.099 23.8551 102.329 21.1438L106.796 11.5485H108.777L99.3192 31.6129C98.555 33.2439 97.9141 34.3453 97.3965 34.9173C96.8789 35.4892 96.2704 35.9181 95.5709 36.2041C94.8846 36.49 94.0499 36.633 93.0658 36.633C92.3278 36.633 91.5056 36.5218 90.5993 36.2994V34.9332C91.3505 35.1026 92.1596 35.1873 93.0272 35.1873C93.6874 35.1873 94.2698 35.0602 94.7749 34.806C95.2795 34.5519 95.7329 34.1547 96.134 33.6146C96.5482 33.085 97.0209 32.2377 97.5516 31.0728C98.0954 29.9184 98.4454 29.1664 98.6005 28.8169L90.5215 11.5485ZM120.002 27.7366C122.332 27.7366 124.048 27.1647 125.148 26.0209C126.249 24.8665 126.799 22.9919 126.799 20.3972V19.8411C126.799 17.3311 126.242 15.5041 125.129 14.3603C124.028 13.2165 122.3 12.6446 119.944 12.6446C117.756 12.6446 116.066 13.3012 114.875 14.6145C113.696 15.9172 113.107 17.7865 113.107 20.2224C113.107 25.2319 115.406 27.7366 120.002 27.7366ZM120.002 29.1346C117.075 29.1346 114.856 28.3774 113.34 26.8629C111.839 25.3484 111.088 23.1455 111.088 20.2541C111.088 17.3417 111.865 15.107 113.418 13.5501C114.985 11.9933 117.231 11.2148 120.157 11.2148C121.814 11.2148 123.212 11.5167 124.352 12.1203C125.491 12.7135 126.41 13.6508 127.11 14.9323H127.226C127.278 14.3815 127.394 13.7514 127.575 13.0418C127.77 12.3216 127.932 11.8238 128.061 11.5485H129.498C128.968 12.9677 128.702 15.0381 128.702 17.76V25.6238C128.702 27.1277 129.285 27.8796 130.45 27.8796C130.929 27.8796 131.343 27.8214 131.693 27.7048V28.8487C131.317 29.0393 130.786 29.1346 130.1 29.1346C128.21 29.1346 127.148 28.1391 126.915 26.148H126.76C125.944 27.1859 124.986 27.9431 123.886 28.4197C122.785 28.8963 121.491 29.1346 120.002 29.1346ZM149.171 12.9147H142.141V28.8169H140.237V12.9147H133.033V11.5485H149.171V12.9147Z" fill="black"/>
<path d="M9.05213 58.4165C6.91594 58.4165 5.2652 57.876 4.09999 56.7958C2.94772 55.705 2.37158 54.1958 2.37158 52.2683C2.37158 50.4147 2.81178 48.6676 3.69216 47.026C4.58549 45.3843 5.76367 44.1451 7.22668 43.3085C8.68963 42.4718 10.3598 42.0534 12.2371 42.0534C14.8912 42.0534 16.8397 43.2502 18.0826 45.6437C18.1862 44.8494 18.2379 44.0869 18.2379 43.3561C18.2379 40.8566 17.7654 39.0033 16.8203 37.7959C15.8751 36.5779 14.3992 35.969 12.3924 35.969C11.6027 35.969 10.7805 36.059 9.92605 36.2391C9.07156 36.4085 8.32713 36.6256 7.69276 36.8904V35.3176C9.34992 34.7775 11.0071 34.5074 12.6643 34.5074C17.7007 34.5074 20.2188 37.4146 20.2188 43.229C20.2188 46.0462 19.7204 48.6778 18.7234 51.1245C17.7266 53.5604 16.393 55.3875 14.7229 56.6053C13.0657 57.8128 11.1754 58.4165 9.05213 58.4165ZM9.091 56.9548C11.1495 56.9548 12.9492 56.0759 14.4899 54.3176C16.0434 52.5597 17.1051 50.293 17.6747 47.5182C17.1699 46.2157 16.4642 45.2254 15.5579 44.5476C14.6517 43.8592 13.5836 43.515 12.3536 43.515C10.8259 43.515 9.45997 43.891 8.25594 44.6429C7.0648 45.3843 6.10674 46.4593 5.38172 47.8677C4.66964 49.2765 4.31361 50.7434 4.31361 52.2683C4.31361 53.7403 4.72791 54.8897 5.55651 55.7157C6.38509 56.5416 7.56327 56.9548 9.091 56.9548ZM34.9588 58.4165C31.8904 58.4165 29.4758 57.6273 27.715 56.0494C25.9672 54.4607 25.0933 52.2999 25.0933 49.5679C25.0933 46.761 25.9996 44.5476 27.8121 42.9272C29.6376 41.3068 32.1105 40.4966 35.2307 40.4966C36.0334 40.4966 36.9526 40.5654 37.9884 40.7031C39.0371 40.8408 39.9368 41.0314 40.6878 41.275L40.1246 42.673C39.3607 42.4506 38.4997 42.2705 37.5417 42.1329C36.5966 41.9952 35.8133 41.9264 35.1918 41.9264C32.7967 41.9264 30.9129 42.4824 29.5405 43.5944C28.1682 44.7064 27.372 46.2686 27.1519 48.2809H39.2895V49.679H27.0742C27.1001 51.9769 27.8186 53.7724 29.2298 55.0645C30.6411 56.3459 32.5378 56.9864 34.92 56.9864C36.9526 56.9864 38.7911 56.7061 40.4353 56.1447V57.606C39.8397 57.85 39.0565 58.0456 38.0855 58.1939C37.1145 58.3422 36.0722 58.4165 34.9588 58.4165ZM58.7097 53.6027C58.7097 55.1491 57.991 56.3403 56.5542 57.1774C55.1171 58.0034 53.0779 58.4165 50.4368 58.4165C47.6143 58.4165 45.3745 58.0614 43.7174 57.3522V55.652C45.8407 56.5207 48.0804 56.9548 50.4368 56.9548C52.5212 56.9548 54.1007 56.6741 55.1753 56.1131C56.2629 55.5409 56.8066 54.7838 56.8066 53.8412C56.8066 52.9725 56.3729 52.2418 55.5055 51.6488C54.6509 51.0557 53.2397 50.4733 51.2718 49.9012C49.1615 49.2765 47.6791 48.7415 46.8246 48.2967C45.9701 47.8412 45.3228 47.3332 44.8826 46.7717C44.4553 46.1998 44.2417 45.5061 44.2417 44.6905C44.2417 43.3985 44.902 42.3765 46.2226 41.6245C47.5561 40.8725 49.414 40.4966 51.7962 40.4966C54.0748 40.4966 56.237 40.8461 58.2825 41.5451L57.5637 42.9748C55.4925 42.2758 53.5699 41.9264 51.7962 41.9264C50.0742 41.9264 48.7084 42.1594 47.6985 42.6254C46.6887 43.0913 46.1837 43.7374 46.1837 44.5635C46.1837 45.4637 46.5721 46.1839 47.349 46.7239C48.1387 47.2639 49.6729 47.8677 51.9516 48.5351C53.8547 49.0966 55.24 49.6046 56.1075 50.0601C56.9751 50.5049 57.6222 51.0134 58.0495 51.5851C58.4899 52.1572 58.7097 52.8298 58.7097 53.6027ZM65.7399 40.8302V53.1263C65.7399 54.5453 66.0376 55.5516 66.633 56.1447C67.2416 56.727 68.2325 57.0185 69.6046 57.0185C70.4461 57.0185 71.2813 56.9334 72.1097 56.7642V58.0986C71.8507 58.173 71.4558 58.2418 70.9251 58.305C70.3944 58.3794 69.8893 58.4165 69.4103 58.4165C67.4427 58.4165 66.0183 57.9927 65.1382 57.1454C64.2705 56.298 63.837 55.0115 63.837 53.2853V40.8302H65.7399ZM92.8507 40.8302V41.9264L88.4813 42.1488C89.6461 43.3349 90.2291 44.6376 90.2291 46.0568C90.2291 47.7194 89.549 49.0701 88.1899 50.108C86.8433 51.1352 85.0308 51.6488 82.7524 51.6488C81.7938 51.6488 81.1205 51.6172 80.7325 51.5535C79.9683 51.8816 79.3859 52.2683 78.9847 52.7131C78.583 53.1579 78.3825 53.6292 78.3825 54.127C78.3825 54.6778 78.6347 55.0803 79.1399 55.3345C79.658 55.5888 80.5188 55.7157 81.7228 55.7157H85.4126C87.7041 55.7157 89.4586 56.0968 90.6757 56.8595C91.8927 57.6115 92.5012 58.7289 92.5012 60.2116C92.5012 62.0331 91.595 63.4363 89.7825 64.4216C87.9825 65.4167 85.4126 65.9145 82.0723 65.9145C79.4183 65.9145 77.3597 65.4962 75.8967 64.6596C74.4467 63.823 73.7217 62.6582 73.7217 61.1648C73.7217 59.9787 74.1683 58.9934 75.0615 58.2097C75.9677 57.4261 77.1916 56.8911 78.7319 56.6053C78.0978 56.3831 77.5864 56.0703 77.1978 55.6683C76.8222 55.2551 76.6347 54.7838 76.6347 54.2544C76.6347 53.0998 77.5348 52.0829 79.3342 51.204C78.1041 50.7908 77.1461 50.1447 76.4597 49.2658C75.774 48.3762 75.4308 47.3597 75.4308 46.2157C75.4308 44.4893 76.0972 43.1072 77.4308 42.0693C78.7774 41.0208 80.5899 40.4966 82.8688 40.4966C84.2541 40.4966 85.3285 40.6078 86.0921 40.8302H92.8507ZM75.7609 61.0217C75.7609 63.394 77.9166 64.5801 82.2279 64.5801C87.7688 64.5801 90.5399 63.1346 90.5399 60.2432C90.5399 59.2053 90.1058 58.4533 89.2387 57.9876C88.3711 57.5214 86.9666 57.2885 85.0245 57.2885H81.5677C77.6961 57.2885 75.7609 58.5327 75.7609 61.0217ZM77.3728 46.2157C77.3728 47.5503 77.8649 48.5881 78.8484 49.3295C79.8455 50.0601 81.1728 50.4254 82.8296 50.4254C84.5904 50.4254 85.937 50.0601 86.8694 49.3295C87.8143 48.5988 88.287 47.5396 88.287 46.1521C88.287 44.68 87.8012 43.5785 86.8302 42.8478C85.8722 42.1064 84.5257 41.7357 82.791 41.7357C81.108 41.7357 79.7808 42.1329 78.8097 42.9272C77.8518 43.7109 77.3728 44.8071 77.3728 46.2157ZM99.0262 40.8302V53.3169L98.9097 56.5737L111.436 40.8302H114V58.0986H112.155V45.6914L112.232 42.3553L99.7058 58.0986H97.2007V40.8302H99.0262Z" fill="black"/>
</svg>
