<svg width="140" height="59" viewBox="0 0 140 59" fill="none" xmlns="http://www.w3.org/2000/svg">
<path d="M107.908 1.88452V29.138L107.563 29.4252L107.217 29.7124L106.886 30.0139L106.569 30.3154L106.267 30.617L105.965 30.9329L105.677 31.2488L105.389 31.5647V1.88452H75.1114V26.697H72.6063V1.88452H42.3287V26.74H39.8236V1.88452H9.54606V30.2149L1.8147 55.9033H8.61023L12.0224 44.5309H13.0014L18.6451 55.9033H26.8516L21.3806 44.5309H33.7911L30.3502 55.9033H37.7648L41.1625 44.5596H42.8038V44.5308H45.1362H45.3234H59.3319L56.0494 55.8745H63.536L66.7178 44.5308H70.0867L70.173 55.8745H76.4503L83.6633 44.5308H88.3856L85.9381 55.8745H93.3095L95.7139 44.5308H99.9755L99.9467 45.177L99.9619 45.8375L99.9907 46.4693L100.048 47.1011L100.091 47.4026L100.135 47.7042L100.192 48.0057L100.25 48.3073L100.322 48.6088L100.394 48.896L100.48 49.1832L100.566 49.4704L100.667 49.7575L100.768 50.0304L100.883 50.3032L100.998 50.5616L101.128 50.8345L101.257 51.0929L101.402 51.337L101.546 51.5955L101.704 51.8396L101.877 52.0693L102.05 52.3135L102.237 52.5288L102.424 52.7586L102.611 52.974L102.827 53.1894L103.043 53.3904L103.316 53.6201L103.59 53.8499L103.878 54.0652L104.18 54.2663L104.483 54.4673L104.785 54.654L105.102 54.8118L105.433 54.9841L105.75 55.1277L106.081 55.2713L106.412 55.4006L106.757 55.5298L107.103 55.6448L107.449 55.7453L107.794 55.8458L108.14 55.9319L108.831 56.0898L109.536 56.2048L110.227 56.3052L110.918 56.3914L111.595 56.4488L112.257 56.4776L112.905 56.5064H113.524L114.359 56.4928L115.194 56.4791L116.044 56.436L116.893 56.393L117.743 56.3211L118.592 56.2492L119.441 56.163L120.291 56.0625L121.155 55.9476L122.019 55.8183L122.882 55.6748L123.746 55.5312L124.61 55.3733L125.474 55.201L126.338 55.0287L127.216 54.8277L129.779 44.5322H138.187V1.88585H107.909L107.908 1.88452ZM12.3535 43.4683L12.3967 43.3105L12.4976 43.4683H12.3535ZM38.7294 28.1903L38.2975 29.6406L34.2662 42.9945L34.1078 43.4683H20.8623L19.8401 41.2858L34.1078 26.74H24.9367L13.7788 38.7299L17.3925 26.74H10.6258V2.96146H38.7293V28.1903H38.7294ZM46.5471 39.4765L46.3312 39.4901L46.1296 39.5038L45.9137 39.5174H45.6833H45.381H45.1218L44.877 39.531H44.6467L42.847 39.5174L43.6821 36.4446L44.0708 34.9225L45.021 31.3471H45.3234H45.6401L45.9424 31.3335H46.2304H47.6269L48.4764 31.3471L49.2538 31.3759L49.5994 31.3895L49.9305 31.4183L50.2472 31.4614L50.5352 31.5045L50.7943 31.5476L51.0391 31.6194L51.2695 31.6913L51.471 31.7775L51.6438 31.8636L51.8022 31.9786L51.9462 32.0936L52.0613 32.2371L52.1332 32.3521L52.1908 32.4671L52.2483 32.5963L52.2915 32.7399L52.3202 32.8978L52.3355 33.0557V33.228V33.4146L52.3202 33.6156L52.3067 33.8167L52.2635 34.0464L52.2204 34.2762L52.0907 34.7644L51.9323 35.31L51.7739 35.7695L51.6012 36.2146L51.414 36.631L51.2124 37.0187L51.1116 37.191L51.0107 37.3634L50.8954 37.5357L50.7658 37.6935L50.6362 37.8514L50.5065 37.995L50.3625 38.1386L50.2185 38.2678L50.06 38.3828L49.9016 38.512L49.7289 38.6125L49.5417 38.7275L49.3545 38.828L49.153 38.9141L48.9514 39.0003L48.7354 39.0722L48.5051 39.1584L48.2603 39.2158L48.0012 39.2732L47.742 39.3306L47.4541 39.3736L47.1661 39.4167L46.8638 39.4455L46.5471 39.4743L46.5471 39.4765ZM67.0201 43.4683L69.9716 32.9862L70.0868 43.4683H67.0202H67.0201ZM71.5121 26.697H64.4862L59.6487 43.4683H52.1909L52.5364 43.3248L52.8819 43.1812L53.2131 43.0376L53.5442 42.8798L53.861 42.7219L54.1633 42.5352L54.4657 42.3629L54.7536 42.1762L55.0415 41.9752L55.3151 41.7742L55.5742 41.5732L55.8334 41.3434L56.0781 41.128L56.3085 40.8839L56.5389 40.6542L56.7548 40.3957L56.9708 40.1516L57.1724 39.8788L57.3595 39.6203L57.5467 39.3331L57.7194 39.0459L57.8779 38.7588L58.0363 38.4572L58.1803 38.1413L58.3243 37.8254L58.454 37.5095L58.5691 37.1793L58.6843 36.8347L58.7706 36.49L58.8715 36.1454L58.9434 35.7721L59.0154 35.4131L59.1162 34.8387L59.2025 34.2931L59.2601 33.7762L59.3032 33.288L59.3185 32.7998L59.3032 32.3546L59.2897 31.9095L59.2322 31.4931L59.1746 31.1054L59.0737 30.7177L58.9729 30.3587L58.8288 30.0141L58.6704 29.6838L58.4977 29.3536L58.2961 29.0521L58.0658 28.7649L57.8786 28.5638L57.6914 28.3628L57.4899 28.1905L57.2739 28.0326L57.0435 27.8747L56.8132 27.7312L56.5684 27.6019L56.3237 27.487L56.0645 27.372L55.8054 27.2858L55.5318 27.1996L55.2583 27.1135L54.9703 27.0416L54.6824 26.9842L54.3944 26.9268L54.0921 26.8837L53.473 26.7975L52.8539 26.7544L52.2204 26.7114L51.5726 26.6977H50.2768H48.9954H48.5923H47.8725H46.9798H45.9864H45.0218H44.2011H43.6252H43.4093V2.96223H71.5128V26.6977L71.5121 26.697ZM88.5873 43.4683H84.3689L90.7613 33.417L88.5873 43.4683V43.4683ZM104.295 27.1708L104.28 32.9862L103.92 33.4888L103.588 34.0057L103.257 34.5227L102.955 35.0396L102.667 35.5565L102.379 36.0878L102.134 36.6047L101.89 37.1216L101.659 37.6242L101.458 38.1411L101.256 38.6437L101.083 39.1319L100.925 39.6201L100.781 40.094L100.651 40.5534L100.536 41.0129L100.464 41.3145L100.392 41.6304L100.32 41.9319L100.263 42.2478L100.205 42.5493L100.162 42.8509L100.119 43.1524L100.09 43.4683H95.958L99.4853 26.74L87.5931 26.7264L76.9535 43.4691H76.1761V2.96219H104.294V27.1715L104.295 27.1708ZM120.506 50.3176L119.916 50.4181L119.311 50.5043L118.706 50.5904L118.116 50.6623L117.526 50.7197L116.936 50.7628L116.36 50.7916H115.784H115.409L115.035 50.7779L114.675 50.7492L114.315 50.7061L113.97 50.6487L113.639 50.5913L113.307 50.5194L112.991 50.4332L112.688 50.3328L112.386 50.2323L112.098 50.103L111.825 49.9737L111.551 49.8159L111.292 49.658L111.047 49.4857L110.817 49.3134L110.586 49.1124L110.385 48.897L110.183 48.6816L109.996 48.4375L109.823 48.1934L109.665 47.9205L109.521 47.6477L109.377 47.3605L109.262 47.059L109.161 46.7287L109.074 46.3985L108.988 46.0539L108.931 45.6949L108.887 45.3216L108.859 44.9339L108.843 44.5318H121.945L120.505 50.3185L120.506 50.3176ZM137.121 43.4683H130.037L131.203 38.7873H117.008L115.841 43.4683H108.974V42.5063L109.06 42.1042L109.132 41.7022L109.218 41.2714L109.305 40.8406L109.434 40.3668L109.564 39.8929L109.708 39.4191L109.866 38.9596L110.039 38.5001L110.226 38.0406L110.428 37.5955L110.63 37.1503L110.86 36.7052L111.09 36.2888L111.335 35.858L111.609 35.456L111.882 35.0539L112.156 34.6662L112.458 34.2929L112.775 33.9339L113.106 33.5893L113.437 33.2734L113.797 32.9575L114.157 32.656L114.531 32.3831L114.934 32.1247L115.337 31.8949L115.755 31.6796L116.187 31.4785L116.633 31.3062L117.094 31.1627L117.569 31.0477L118.059 30.9472L118.562 30.8753L119.081 30.8323L119.613 30.8186L120.031 30.8323L120.448 30.861L120.866 30.9184L121.269 31.0046L121.471 31.062L121.658 31.1194L121.845 31.1768L122.018 31.263L122.191 31.3348L122.363 31.4353L122.522 31.5358L122.68 31.6363L122.824 31.7656L122.968 31.8948L123.098 32.0241L123.227 32.182L123.343 32.3255L123.444 32.4978L123.53 32.6845L123.616 32.8712L123.688 33.0722L123.746 33.2876L123.789 33.503L123.832 33.7471L123.847 33.9912V34.2496V34.5225L123.818 34.8096H132.284L132.414 34.2209L132.529 33.546L132.587 33.1871L132.615 32.7994L132.644 32.4117V32.0096L132.631 31.5932L132.587 31.1624L132.544 30.9614L132.515 30.746L132.458 30.5306L132.4 30.3153L132.328 30.0855L132.257 29.8701L132.17 29.6547L132.069 29.4394L131.968 29.224L131.839 29.0086L131.709 28.7932L131.565 28.5778L131.392 28.3481L131.205 28.1327L131.018 27.9173L130.816 27.7163L130.601 27.5152L130.37 27.3286L130.14 27.1563L129.895 26.984L129.636 26.8117L129.377 26.6681L129.103 26.5245L128.815 26.3809L128.527 26.2517L128.225 26.1224L127.908 26.0075L127.591 25.8925L127.275 25.792L126.929 25.7058L126.598 25.6197L126.238 25.5335L125.878 25.4616L125.518 25.3897L125.144 25.3323L124.755 25.2893L123.963 25.2031L123.157 25.1312L122.308 25.1024L121.444 25.0888L120.796 25.1024L120.119 25.116L119.414 25.1591L118.68 25.2165L117.917 25.3027L117.139 25.4032L116.347 25.5325L115.541 25.7048L115.138 25.7909L114.72 25.8914L114.317 26.0064L113.9 26.1213L113.482 26.2506L113.065 26.3942L112.647 26.5377L112.244 26.6956L111.826 26.8679L111.409 27.0546L111.006 27.2413L110.588 27.4423L110.185 27.6577L109.782 27.8874L109.379 28.1172L108.976 28.3756V2.96012H137.123V43.467L137.121 43.4683Z" fill="black"/>
</svg>
